# xmcd
#
# Track frame offsets:
#	150
#	12824
#	23959
#	42153
#	57203
#	71442
#	85169
#	98361
#	112893
#	126790
#	142062
#	157357
#	174291
#	185141
#	201343
#	213512
#	228799
#	243821
#
# Disc length: 3436 seconds
#
# Revision: 0
# Processed by: cddbd v1.4PL0 Copyright (c) Steve Scherf et al.
# Submitted via: EasyCDDAExtractor 4.5.0.2
#
DISCID=ef0d6a12
DTITLE=South Mountain - Dixiefied
DYEAR=1991
DGENRE=Country
TTITLE0=Ridin' Free, Ridin' High
TTITLE1=Dixiefied
TTITLE2=One Way Rider
TTITLE3=The Time Of My Life
TTITLE4=Who Took That Smile Away From Me
TTITLE5=You Make Me Feel So High
TTITLE6=That Don't Mean I Love You Less
TTITLE7=Lost Highway
TTITLE8=Light Years Away
TTITLE9=I've Got The Blues
TTITLE10=That's The Truth
TTITLE11=Dream Of Me
TTITLE12=Just One Time
TTITLE13=Gone Ahead
TTITLE14=The Devil's Face
TTITLE15=Dandy Lying
TTITLE16=When She Needed Love
TTITLE17=I Stepped Over The Line
EXTD=
EXTT0=
EXTT1=
EXTT2=
EXTT3=
EXTT4=
EXTT5=
EXTT6=
EXTT7=
EXTT8=
EXTT9=
EXTT10=
EXTT11=
EXTT12=
EXTT13=
EXTT14=
EXTT15=
EXTT16=
EXTT17=
PLAYORDER=
